<mxfile host="app.diagrams.net" modified="2020-09-01T07:12:08.045Z" agent="5.0 (X11; Linux x86_64) AppleWebKit/537.36 (KHTML, like Gecko) Chrome/85.0.4183.83 Safari/537.36" etag="7NG1qE1n5gtpqIDm-727" version="13.6.6" type="github">
  <diagram id="TnIrcA51S4dzsQ8LSK2p" name="Page-1">
    <mxGraphModel dx="1360" dy="729" grid="1" gridSize="10" guides="1" tooltips="1" connect="1" arrows="1" fold="1" page="1" pageScale="1" pageWidth="827" pageHeight="1169" math="0" shadow="0">
      <root>
        <mxCell id="0" />
        <mxCell id="1" parent="0" />
        <mxCell id="g-B6FnBMhDAQ--2wn9Xy-17" value="" style="rounded=0;whiteSpace=wrap;html=1;" parent="1" vertex="1">
          <mxGeometry x="320" y="75" width="340" height="270" as="geometry" />
        </mxCell>
        <mxCell id="g-B6FnBMhDAQ--2wn9Xy-2" value="Комьюнити" style="text;html=1;strokeColor=none;fillColor=none;align=center;verticalAlign=middle;whiteSpace=wrap;rounded=0;" parent="1" vertex="1">
          <mxGeometry x="140" y="50" width="40" height="20" as="geometry" />
        </mxCell>
        <mxCell id="g-B6FnBMhDAQ--2wn9Xy-21" style="edgeStyle=orthogonalEdgeStyle;rounded=0;orthogonalLoop=1;jettySize=auto;html=1;exitX=1;exitY=0.5;exitDx=0;exitDy=0;entryX=0;entryY=0.5;entryDx=0;entryDy=0;" parent="1" source="g-B6FnBMhDAQ--2wn9Xy-4" target="g-B6FnBMhDAQ--2wn9Xy-19" edge="1">
          <mxGeometry relative="1" as="geometry">
            <Array as="points">
              <mxPoint x="300" y="95" />
              <mxPoint x="300" y="170" />
            </Array>
          </mxGeometry>
        </mxCell>
        <mxCell id="g-B6FnBMhDAQ--2wn9Xy-4" value="id" style="rounded=0;whiteSpace=wrap;html=1;" parent="1" vertex="1">
          <mxGeometry x="60" y="80" width="200" height="30" as="geometry" />
        </mxCell>
        <mxCell id="g-B6FnBMhDAQ--2wn9Xy-5" value="Название&lt;span style=&quot;color: rgba(0 , 0 , 0 , 0) ; font-family: monospace ; font-size: 0px&quot;&gt;%3CmxGraphModel%3E%3Croot%3E%3CmxCell%20id%3D%220%22%2F%3E%3CmxCell%20id%3D%221%22%20parent%3D%220%22%2F%3E%3CmxCell%20id%3D%222%22%20value%3D%22id%22%20style%3D%22rounded%3D0%3BwhiteSpace%3Dwrap%3Bhtml%3D1%3B%22%20vertex%3D%221%22%20parent%3D%221%22%3E%3CmxGeometry%20x%3D%2260%22%20y%3D%2280%22%20width%3D%22200%22%20height%3D%2230%22%20as%3D%22geometry%22%2F%3E%3C%2FmxCell%3E%3C%2Froot%3E%3C%2FmxGraphModel%3E&lt;/span&gt;" style="rounded=0;whiteSpace=wrap;html=1;" parent="1" vertex="1">
          <mxGeometry x="60" y="120" width="200" height="30" as="geometry" />
        </mxCell>
        <mxCell id="g-B6FnBMhDAQ--2wn9Xy-6" value="Аватарка&lt;span style=&quot;color: rgba(0 , 0 , 0 , 0) ; font-family: monospace ; font-size: 0px&quot;&gt;%3CmxGraphModel%3E%3Croot%3E%3CmxCell%20id%3D%220%22%2F%3E%3CmxCell%20id%3D%221%22%20parent%3D%220%22%2F%3E%3CmxCell%20id%3D%222%22%20value%3D%22id%22%20style%3D%22rounded%3D0%3BwhiteSpace%3Dwrap%3Bhtml%3D1%3B%22%20vertex%3D%221%22%20parent%3D%221%22%3E%3CmxGeometry%20x%3D%2260%22%20y%3D%2280%22%20width%3D%22200%22%20height%3D%2230%22%20as%3D%22geometry%22%2F%3E%3C%2FmxCell%3E%3C%2Froot%3E%3C%2FmxGraphModel%3E&lt;/span&gt;" style="rounded=0;whiteSpace=wrap;html=1;" parent="1" vertex="1">
          <mxGeometry x="60" y="160" width="200" height="30" as="geometry" />
        </mxCell>
        <mxCell id="g-B6FnBMhDAQ--2wn9Xy-7" value="Категория" style="rounded=0;whiteSpace=wrap;html=1;" parent="1" vertex="1">
          <mxGeometry x="60" y="200" width="200" height="30" as="geometry" />
        </mxCell>
        <mxCell id="g-B6FnBMhDAQ--2wn9Xy-8" value="количество подп." style="rounded=0;whiteSpace=wrap;html=1;" parent="1" vertex="1">
          <mxGeometry x="60" y="240" width="200" height="30" as="geometry" />
        </mxCell>
        <mxCell id="g-B6FnBMhDAQ--2wn9Xy-9" value="Количество постов" style="rounded=0;whiteSpace=wrap;html=1;" parent="1" vertex="1">
          <mxGeometry x="60" y="280" width="200" height="30" as="geometry" />
        </mxCell>
        <mxCell id="g-B6FnBMhDAQ--2wn9Xy-10" value="" style="rounded=0;whiteSpace=wrap;html=1;" parent="1" vertex="1">
          <mxGeometry x="60" y="320" width="200" height="30" as="geometry" />
        </mxCell>
        <mxCell id="g-B6FnBMhDAQ--2wn9Xy-13" value="" style="rounded=0;whiteSpace=wrap;html=1;" parent="1" vertex="1">
          <mxGeometry x="710" y="80" width="270" height="260" as="geometry" />
        </mxCell>
        <mxCell id="g-B6FnBMhDAQ--2wn9Xy-14" value="Пользователь" style="text;html=1;strokeColor=none;fillColor=none;align=center;verticalAlign=middle;whiteSpace=wrap;rounded=0;" parent="1" vertex="1">
          <mxGeometry x="825" y="50" width="40" height="20" as="geometry" />
        </mxCell>
        <mxCell id="g-B6FnBMhDAQ--2wn9Xy-20" style="edgeStyle=orthogonalEdgeStyle;rounded=0;orthogonalLoop=1;jettySize=auto;html=1;entryX=1;entryY=0.5;entryDx=0;entryDy=0;" parent="1" source="g-B6FnBMhDAQ--2wn9Xy-15" target="g-B6FnBMhDAQ--2wn9Xy-18" edge="1">
          <mxGeometry relative="1" as="geometry" />
        </mxCell>
        <mxCell id="g-B6FnBMhDAQ--2wn9Xy-15" value="id" style="rounded=0;whiteSpace=wrap;html=1;" parent="1" vertex="1">
          <mxGeometry x="720" y="90" width="250" height="50" as="geometry" />
        </mxCell>
        <mxCell id="g-B6FnBMhDAQ--2wn9Xy-16" value="список подписок" style="rounded=0;whiteSpace=wrap;html=1;" parent="1" vertex="1">
          <mxGeometry x="720" y="150" width="250" height="40" as="geometry" />
        </mxCell>
        <mxCell id="g-B6FnBMhDAQ--2wn9Xy-18" value="user id" style="rounded=0;whiteSpace=wrap;html=1;" parent="1" vertex="1">
          <mxGeometry x="340" y="92.5" width="300" height="45" as="geometry" />
        </mxCell>
        <mxCell id="g-B6FnBMhDAQ--2wn9Xy-19" value="commutiy id" style="rounded=0;whiteSpace=wrap;html=1;" parent="1" vertex="1">
          <mxGeometry x="340" y="147.5" width="300" height="45" as="geometry" />
        </mxCell>
        <mxCell id="g-B6FnBMhDAQ--2wn9Xy-22" value="user com" style="text;html=1;strokeColor=none;fillColor=none;align=center;verticalAlign=middle;whiteSpace=wrap;rounded=0;" parent="1" vertex="1">
          <mxGeometry x="470" y="40" width="40" height="20" as="geometry" />
        </mxCell>
      </root>
    </mxGraphModel>
  </diagram>
</mxfile>
